<svg width="20" height="23" viewBox="0 0 20 23" fill="none" xmlns="http://www.w3.org/2000/svg">
<g id="Group 37">
<path id="Vector" d="M12.2222 13.3286H7.77777V21.1063H12.2222V13.3286Z" fill="#F1F0F4"/>
<path id="Vector_2" d="M19.3556 9.08416L10.7889 0.328663C10.6857 0.224521 10.5628 0.141861 10.4274 0.0854516C10.292 0.0290423 10.1467 0 10.0001 0C9.85338 0 9.70816 0.0290423 9.57276 0.0854516C9.43736 0.141861 9.31447 0.224521 9.21118 0.328663L0.644568 9.09527C0.437277 9.30423 0.273565 9.5523 0.162936 9.82505C0.0523072 10.0978 -0.00303307 10.3898 0.000128182 10.6841V19.9952C-0.000732728 20.564 0.216541 21.1115 0.607207 21.5249C0.997873 21.9383 1.53219 22.1861 2.10011 22.2174H5.55565V12.2175C5.55565 11.9228 5.67271 11.6402 5.88108 11.4318C6.08945 11.2234 6.37207 11.1064 6.66675 11.1064H13.3334C13.6281 11.1064 13.9107 11.2234 14.119 11.4318C14.3274 11.6402 14.4445 11.9228 14.4445 12.2175V22.2174H17.9C18.4679 22.1861 19.0023 21.9383 19.3929 21.5249C19.7836 21.1115 20.0009 20.564 20 19.9952V10.6841C20.0009 10.0874 19.7698 9.51369 19.3556 9.08416Z" fill="#F1F0F4"/>
</g>
</svg>
