<svg width="20" height="19" viewBox="0 0 20 19" fill="none" xmlns="http://www.w3.org/2000/svg">
<g id="Group 38">
<path id="Vector" d="M7.00006 8.21787C7.79119 8.21787 8.56454 7.98327 9.22234 7.54375C9.88014 7.10422 10.3928 6.47951 10.6956 5.7486C10.9983 5.0177 11.0775 4.21343 10.9232 3.43751C10.7689 2.66158 10.3879 1.94885 9.82849 1.38944C9.26908 0.830029 8.55635 0.449067 7.78042 0.294726C7.0045 0.140385 6.20023 0.219598 5.46933 0.522349C4.73842 0.825099 4.11371 1.33779 3.67418 1.99559C3.23466 2.65338 3.00006 3.42674 3.00006 4.21787C3.00006 5.27873 3.42149 6.29615 4.17163 7.04629C4.92178 7.79644 5.9392 8.21787 7.00006 8.21787Z" fill="#5E676E"/>
<path id="Vector_2" d="M14.9999 10.2179C15.5933 10.2179 16.1733 10.0419 16.6666 9.71226C17.16 9.38262 17.5445 8.91408 17.7716 8.3659C17.9986 7.81772 18.0581 7.21452 17.9423 6.63258C17.8265 6.05064 17.5408 5.51609 17.1213 5.09653C16.7017 4.67697 16.1672 4.39125 15.5852 4.2755C15.0033 4.15974 14.4001 4.21915 13.8519 4.44621C13.3037 4.67328 12.8352 5.05779 12.5055 5.55114C12.1759 6.04449 11.9999 6.62451 11.9999 7.21785C11.9999 8.0135 12.316 8.77656 12.8786 9.33917C13.4412 9.90178 14.2043 10.2179 14.9999 10.2179Z" fill="#5E676E"/>
<path id="Vector_3" d="M19 17.2179C19.2652 17.2179 19.5196 17.1125 19.7071 16.925C19.8946 16.7374 20 16.4831 20 16.2179C19.9992 15.2833 19.7365 14.3676 19.2416 13.5747C18.7468 12.7819 18.0396 12.1436 17.2003 11.7323C16.3611 11.321 15.4234 11.1532 14.4936 11.2479C13.5638 11.3425 12.6791 11.6959 11.94 12.2679C10.9605 11.2922 9.71406 10.6285 8.35782 10.3603C7.00159 10.0921 5.59632 10.2315 4.31923 10.761C3.04213 11.2904 1.95041 12.1862 1.18174 13.3353C0.413069 14.4844 0.00187019 15.8354 0 17.2179C0 17.4831 0.105357 17.7374 0.292893 17.925C0.48043 18.1125 0.734784 18.2179 1 18.2179H13C13.2652 18.2179 13.5196 18.1125 13.7071 17.925C13.8946 17.7374 14 17.4831 14 17.2179" fill="#5E676E"/>
</g>
</svg>
