<svg width="20" height="22" viewBox="0 0 20 22" fill="none" xmlns="http://www.w3.org/2000/svg">
<g id="Group 40">
<path id="Vector" d="M15.7179 10.9991C15.7142 10.9991 15.7105 10.9999 15.7068 10.9999C12.1415 10.9999 9.23952 8.2197 9.23952 4.80215C9.23952 3.86265 9.46503 2.97454 9.85768 2.17593C9.65433 2.15745 9.44828 2.14594 9.23952 2.14594C5.66781 2.14594 2.77228 4.92067 2.77228 8.34372V10.8122C2.77228 12.5644 1.97125 14.2184 0.565946 15.357C0.0975104 15.7404 -0.110401 16.3513 0.0577552 16.9473C0.253655 17.6405 0.968742 18.0832 1.71902 18.0832H16.7555C17.5426 18.0832 18.2846 17.5944 18.4443 16.8552C18.5681 16.2832 18.3557 15.712 17.8928 15.3393C16.5494 14.2601 15.7724 12.6742 15.7179 10.9991Z" fill="#35414B"/>
<path id="Vector_2" d="M20.0007 4.80209C20.0007 7.24706 17.9325 9.22901 15.3811 9.22901C12.8298 9.22901 10.7617 7.24706 10.7617 4.80209C10.7617 2.35711 12.8298 0.375 15.3811 0.375C17.9325 0.375 20.0007 2.35711 20.0007 4.80209Z" fill="#35414B"/>
<path id="Vector_3" d="M9.23915 21.625C10.9124 21.625 12.3121 20.4818 12.6336 18.9688H5.84473C6.16632 20.4818 7.56604 21.625 9.23915 21.625Z" fill="#35414B"/>
</g>
</svg>
