<svg width="20" height="21" viewBox="0 0 20 21" fill="none" xmlns="http://www.w3.org/2000/svg">
<path id="Vector" d="M10 0.226868C8.02219 0.226868 6.08879 0.813357 4.4443 1.91217C2.79981 3.01099 1.51809 4.57277 0.761209 6.40003C0.00433284 8.22729 -0.1937 10.238 0.192152 12.1778C0.578004 14.1176 1.53041 15.8994 2.92894 17.2979C4.32746 18.6965 6.10929 19.6489 8.0491 20.0347C9.98891 20.4206 11.9996 20.2225 13.8268 19.4657C15.6541 18.7088 17.2159 17.4271 18.3147 15.7826C19.4135 14.1381 20 12.2047 20 10.2269C20 8.91365 19.7413 7.61329 19.2388 6.40003C18.7362 5.18678 17.9997 4.08438 17.0711 3.1558C16.1425 2.22721 15.0401 1.49062 13.8268 0.988072C12.6136 0.485525 11.3132 0.226868 10 0.226868ZM10 16.2269C9.80222 16.2269 9.60888 16.1682 9.44443 16.0583C9.27998 15.9485 9.15181 15.7923 9.07612 15.6095C9.00044 15.4268 8.98063 15.2258 9.01922 15.0318C9.0578 14.8378 9.15304 14.6596 9.2929 14.5198C9.43275 14.3799 9.61093 14.2847 9.80491 14.2461C9.99889 14.2075 10.2 14.2273 10.3827 14.303C10.5654 14.3787 10.7216 14.5068 10.8315 14.6713C10.9414 14.8357 11 15.0291 11 15.2269C11 15.4921 10.8946 15.7464 10.7071 15.934C10.5196 16.1215 10.2652 16.2269 10 16.2269ZM11 11.0669V12.2269C11 12.4921 10.8946 12.7464 10.7071 12.934C10.5196 13.1215 10.2652 13.2269 10 13.2269C9.73479 13.2269 9.48043 13.1215 9.2929 12.934C9.10536 12.7464 9 12.4921 9 12.2269V10.2269C9 9.96165 9.10536 9.7073 9.2929 9.51976C9.48043 9.33222 9.73479 9.22687 10 9.22687C10.2967 9.22687 10.5867 9.13889 10.8334 8.97407C11.08 8.80925 11.2723 8.57498 11.3858 8.30089C11.4994 8.0268 11.5291 7.7252 11.4712 7.43423C11.4133 7.14326 11.2704 6.87598 11.0607 6.66621C10.8509 6.45643 10.5836 6.31357 10.2926 6.25569C10.0017 6.19781 9.70007 6.22752 9.42598 6.34105C9.15189 6.45458 8.91762 6.64684 8.7528 6.89351C8.58798 7.14019 8.5 7.43019 8.5 7.72687C8.5 7.99208 8.39465 8.24644 8.20711 8.43397C8.01957 8.62151 7.76522 8.72687 7.5 8.72687C7.23479 8.72687 6.98043 8.62151 6.7929 8.43397C6.60536 8.24644 6.5 7.99208 6.5 7.72687C6.49739 7.07717 6.67566 6.43957 7.01487 5.88544C7.35408 5.33132 7.84082 4.88255 8.42062 4.58937C9.00041 4.2962 9.65037 4.17019 10.2977 4.22546C10.9451 4.28073 11.5643 4.5151 12.086 4.90232C12.6077 5.28954 13.0113 5.81433 13.2516 6.41793C13.492 7.02154 13.5596 7.68014 13.4469 8.31999C13.3342 8.95984 13.0456 9.55569 12.6134 10.0408C12.1813 10.526 11.6226 10.8812 11 11.0669Z" fill="#5E676E"/>
</svg>
