<svg width="20" height="21" viewBox="0 0 20 21" fill="none" xmlns="http://www.w3.org/2000/svg">
<g id="Group 39">
<path id="Vector" d="M10.004 11.7175C10.8324 11.7175 11.504 11.046 11.504 10.2176C11.504 9.38918 10.8324 8.71762 10.004 8.71762C9.17558 8.71762 8.50403 9.38918 8.50403 10.2176C8.50403 11.046 9.17558 11.7175 10.004 11.7175Z" fill="#5E676E"/>
<path id="Vector_2" d="M19.8937 8.53765L19.1037 6.01771C19.0184 5.72648 18.8753 5.4554 18.683 5.22066C18.4907 4.98591 18.253 4.79231 17.9843 4.65139C17.7155 4.51047 17.4211 4.42513 17.1186 4.40045C16.8162 4.37577 16.5118 4.41227 16.2238 4.50775L15.8838 4.61775C15.6174 4.70579 15.3337 4.72813 15.0569 4.68286C14.78 4.63759 14.5182 4.52605 14.2938 4.35776L14.1838 4.27776C13.9648 4.11014 13.7883 3.89339 13.6684 3.64501C13.5486 3.39662 13.4888 3.12354 13.4938 2.8478V2.5678C13.4987 1.93984 13.2541 1.33563 12.8139 0.887848C12.6044 0.676305 12.3553 0.508219 12.0807 0.393244C11.8061 0.278268 11.5116 0.218667 11.2139 0.217865H8.66396C8.05215 0.225771 7.46824 0.47505 7.03935 0.91143C6.61046 1.34781 6.37133 1.93595 6.37402 2.5478V2.7878C6.37306 3.07806 6.30697 3.36441 6.18064 3.62574C6.0543 3.88707 5.87093 4.11672 5.64404 4.29776L5.51404 4.39776C5.26339 4.58737 4.97022 4.71291 4.66002 4.76344C4.34982 4.81398 4.03196 4.788 3.73409 4.68775C3.46051 4.59308 3.17057 4.5549 2.88181 4.57552C2.59305 4.59615 2.31148 4.67515 2.05413 4.80775C1.78619 4.94073 1.54849 5.12743 1.35581 5.35624C1.16313 5.58504 1.01961 5.85105 0.934161 6.13771L0.114182 8.73764C-0.0759706 9.32382 -0.0272056 9.96136 0.249888 10.5118C0.526981 11.0622 1.01003 11.4812 1.59414 11.6776H1.75414C2.02359 11.7785 2.26543 11.9416 2.46003 12.1536C2.65463 12.3656 2.79649 12.6205 2.87411 12.8975L2.93411 13.0575C3.04558 13.3637 3.08286 13.6918 3.04288 14.0152C3.0029 14.3385 2.8868 14.6477 2.70411 14.9175C2.33434 15.4211 2.17837 16.0503 2.27013 16.6683C2.36189 17.2862 2.69396 17.843 3.1941 18.2174L5.26405 19.7874C5.65599 20.0723 6.12946 20.2231 6.61401 20.2173C6.7437 20.23 6.87432 20.23 7.004 20.2173C7.3041 20.1593 7.58921 20.0406 7.84194 19.8687C8.09467 19.6968 8.30972 19.4752 8.47397 19.2174L8.70396 18.8874C8.86529 18.656 9.07877 18.4657 9.32716 18.3319C9.57555 18.1982 9.8519 18.1247 10.1339 18.1174C10.4295 18.1101 10.722 18.1778 10.9843 18.3142C11.2466 18.4506 11.4701 18.6512 11.6339 18.8974L11.7539 19.0674C11.9244 19.3211 12.145 19.5373 12.4022 19.7025C12.6594 19.8678 12.9477 19.9786 13.2493 20.0283C13.5509 20.0779 13.8595 20.0653 14.1561 19.9912C14.4527 19.9171 14.731 19.7831 14.9738 19.5974L17.0037 18.0774C17.4837 17.7046 17.8029 17.1624 17.8958 16.5618C17.9888 15.9613 17.8485 15.3479 17.5037 14.8475L17.2437 14.4675C17.0874 14.2259 16.985 13.9535 16.9436 13.6687C16.9022 13.384 16.9227 13.0936 17.0037 12.8175C17.0864 12.522 17.2397 12.251 17.4505 12.028C17.6613 11.805 17.9233 11.6367 18.2137 11.5376L18.4137 11.4676C18.9924 11.2668 19.4703 10.8488 19.7465 10.3021C20.0227 9.75531 20.0755 9.12259 19.8937 8.53765ZM10.0039 13.7175C9.31171 13.7175 8.63504 13.5122 8.05948 13.1277C7.48392 12.7431 7.03533 12.1965 6.77043 11.557C6.50553 10.9174 6.43622 10.2137 6.57127 9.53481C6.70631 8.85589 7.03964 8.23227 7.52912 7.74279C8.01859 7.25332 8.64221 6.91999 9.32113 6.78494C10 6.6499 10.7038 6.71921 11.3433 6.98411C11.9828 7.24901 12.5294 7.6976 12.914 8.27316C13.2986 8.84872 13.5038 9.52539 13.5038 10.2176C13.5038 11.1458 13.1351 12.0361 12.4787 12.6924C11.8224 13.3488 10.9322 13.7175 10.0039 13.7175Z" fill="#5E676E"/>
</g>
</svg>
