<svg width="20" height="26" viewBox="0 0 20 26" fill="none" xmlns="http://www.w3.org/2000/svg">
<path id="Vector" d="M19.675 6.88013L14.125 0.630132C14.0081 0.500642 13.8655 0.397044 13.7062 0.326001C13.5468 0.254959 13.3744 0.218044 13.2 0.217632H3.2C2.78469 0.212678 2.37247 0.289582 1.98688 0.443953C1.60129 0.598323 1.24988 0.827136 0.952727 1.11732C0.655574 1.40751 0.418493 1.75339 0.255023 2.13522C0.0915526 2.51704 0.00489547 2.92732 0 3.34263V22.0926C0.00489547 22.5079 0.0915526 22.9182 0.255023 23.3C0.418493 23.6819 0.655574 24.0278 0.952727 24.3179C1.24988 24.6081 1.60129 24.8369 1.98688 24.9913C2.37247 25.1457 2.78469 25.2226 3.2 25.2176H16.8C17.2153 25.2226 17.6275 25.1457 18.0131 24.9913C18.3987 24.8369 18.7501 24.6081 19.0473 24.3179C19.3444 24.0278 19.5815 23.6819 19.745 23.3C19.9084 22.9182 19.9951 22.5079 20 22.0926V7.71763C19.9992 7.40784 19.8834 7.10938 19.675 6.88013ZM6.25 12.7176H10C10.3315 12.7176 10.6495 12.8493 10.8839 13.0838C11.1183 13.3182 11.25 13.6361 11.25 13.9676C11.25 14.2992 11.1183 14.6171 10.8839 14.8515C10.6495 15.0859 10.3315 15.2176 10 15.2176H6.25C5.91848 15.2176 5.60054 15.0859 5.36612 14.8515C5.1317 14.6171 5 14.2992 5 13.9676C5 13.6361 5.1317 13.3182 5.36612 13.0838C5.60054 12.8493 5.91848 12.7176 6.25 12.7176ZM13.75 20.2176H6.25C5.91848 20.2176 5.60054 20.0859 5.36612 19.8515C5.1317 19.6171 5 19.2992 5 18.9676C5 18.6361 5.1317 18.3182 5.36612 18.0837C5.60054 17.8493 5.91848 17.7176 6.25 17.7176H13.75C14.0815 17.7176 14.3995 17.8493 14.6339 18.0837C14.8683 18.3182 15 18.6361 15 18.9676C15 19.2992 14.8683 19.6171 14.6339 19.8515C14.3995 20.0859 14.0815 20.2176 13.75 20.2176ZM13.3875 7.71763C13.1298 7.69226 12.8924 7.56668 12.7264 7.36794C12.5604 7.16921 12.4791 6.91323 12.5 6.65513V2.71763L17.175 7.71763H13.3875Z" fill="#5E676E"/>
</svg>
